<svg xmlns="http://www.w3.org/2000/svg" viewBox="0 0 841.9 595.3">
  <g fill="#2ECC71" transform="translate(270,147) scale(2)">
    <path d="M149.2 78.1l-11.9-2c-1.5-5.3-3.8-10.3-6.7-14.8l7-9.8c1.4-2 1.2-4.7-.5-6.4l-7.2-7.2c-1.7-1.7-4.4-1.9-6.4-.5l-9.8 7c-4.5-2.9-9.5-5.2-14.8-6.7l-2-11.9c-.4-2.4-2.5-4.1-4.9-4.1H79.8c-2.5 0-4.5 1.7-4.9 4.1l-2 11.9c-5.3 1.5-10.3 3.8-14.8 6.7l-9.8-7c-2-1.4-4.7-1.2-6.4.5l-7.2 7.2c-1.7 1.7-1.9 4.4-.5 6.4l7 9.8c-2.9 4.5-5.2 9.5-6.7 14.8l-11.9 2c-2.4.4-4.1 2.5-4.1 4.9V96c0 2.5 1.7 4.5 4.1 4.9l11.9 2c1.5 5.3 3.8 10.3 6.7 14.8l-7 9.8c-1.4 2-1.2 4.7.5 6.4l7.2 7.2c1.7 1.7 4.4 1.9 6.4.5l9.8-7c4.5 2.9 9.5 5.2 14.8 6.7l2 11.9c.4 2.4 2.5 4.1 4.9 4.1h12.2c2.5 0 4.5-1.7 4.9-4.1l2-11.9c5.3-1.5 10.3-3.8 14.8-6.7l9.8 7c2 1.4 4.7 1.2 6.4-.5l7.2-7.2c1.7-1.7 1.9-4.4.5-6.4l-7-9.8c2.9-4.5 5.2-9.5 6.7-14.8l11.9-2c2.4-.4 4.1-2.5 4.1-4.9V83c0-2.5-1.7-4.5-4.1-4.9zM85.9 111.5c-16.8 0-30.4-13.6-30.4-30.4S69.1 50.7 85.9 50.7s30.4 13.6 30.4 30.4-13.6 30.4-30.4 30.4z"/>
    <text x="86" y="92" text-anchor="middle" font-size="24" font-family="Arial" font-weight="bold" fill="white">DEV</text>
  </g>
</svg>
